# Blender v2.77 (sub 0) OBJ File: ''
# www.blender.org
mtllib ShieldCollider.mtl
o 5c3f45929a03a016165dba68.007_ID53
v -0.210000 -0.200000 0.309231
v -0.201446 -0.373436 0.248876
v -0.210000 -0.375000 0.253814
v -0.201446 -0.198436 0.304292
v -0.201446 -0.373436 0.248876
v -0.260000 -0.343750 0.177107
v -0.210000 -0.375000 0.253814
v -0.251446 -0.342186 0.172169
v -0.251446 -0.342186 0.172169
v -0.310000 -0.200000 0.136026
v -0.260000 -0.343750 0.177107
v -0.301446 -0.198436 0.131087
v -0.210000 -0.200000 0.309231
v -0.310000 -0.200000 0.136026
v -0.301446 -0.198436 0.131087
v -0.201446 -0.198436 0.304292
v -0.210000 -0.375000 0.253814
v -0.260000 -0.343750 0.177107
v -0.210000 -0.200000 0.309231
v -0.310000 -0.200000 0.136026
v -0.201446 -0.198436 0.304292
v -0.301446 -0.198436 0.131087
v -0.251446 -0.342186 0.172169
v -0.201446 -0.373436 0.248876
vn 0.5180 -0.2582 0.8155
vn 0.5180 -0.2582 0.8154
vn -0.0355 -0.9334 -0.3571
vn -0.4095 -0.3795 -0.8296
vn -0.4096 -0.3795 -0.8296
vn -0.1354 0.9877 0.0782
vn -0.8554 -0.1564 0.4938
vn 0.8554 0.1564 -0.4938
g 5c3f45929a03a016165dba68.007_ID53_ID34
usemtl ID34
s off
f 1//1 3//1 2//1
f 2//2 4//2 1//2
f 5//3 7//3 6//3
f 5//3 6//3 8//3
f 9//4 11//4 10//4
f 9//5 10//5 12//5
f 13//6 15//6 14//6
f 15//6 13//6 16//6
f 17//7 19//7 18//7
f 19//7 20//7 18//7
f 21//8 23//8 22//8
f 23//8 21//8 24//8
o 5c3f45929a03a016165dba68.006_ID47
v -0.251343 -0.056537 0.209365
v -0.210000 -0.025000 0.299168
v -0.201343 -0.025287 0.294170
v -0.260000 -0.056250 0.214362
v -0.201343 -0.200287 0.304233
v -0.210000 -0.025000 0.299168
v -0.210000 -0.200000 0.309231
v -0.201343 -0.025287 0.294170
v -0.201343 -0.200287 0.304233
v -0.310000 -0.200000 0.136026
v -0.301343 -0.200287 0.131028
v -0.210000 -0.200000 0.309231
v -0.301343 -0.200287 0.131028
v -0.310000 -0.200000 0.136026
v -0.260000 -0.056250 0.214362
v -0.251343 -0.056537 0.209365
v -0.210000 -0.200000 0.309231
v -0.210000 -0.025000 0.299168
v -0.260000 -0.056250 0.214362
v -0.310000 -0.200000 0.136026
v -0.201343 -0.200287 0.304233
v -0.251343 -0.056537 0.209365
v -0.201343 -0.025287 0.294170
v -0.301343 -0.200287 0.131028
vn -0.1276 0.9527 -0.2758
vn 0.5006 0.0497 0.8642
vn -0.0249 -0.9996 0.0144
vn -0.4066 0.5422 -0.7354
vn -0.4065 0.5422 -0.7354
vn -0.8657 0.0287 0.4998
vn 0.8657 -0.0287 -0.4998
g 5c3f45929a03a016165dba68.006_ID47_ID26
usemtl ID26
s off
f 25//9 26//9 27//9
f 26//9 25//9 28//9
f 29//10 30//10 31//10
f 29//10 32//10 30//10
f 33//11 34//11 35//11
f 34//11 33//11 36//11
f 37//12 38//12 39//12
f 37//13 39//13 40//13
f 41//14 42//14 43//14
f 41//14 43//14 44//14
f 45//15 46//15 47//15
f 46//15 45//15 48//15
o 5c3f45929a03a016165dba68.005_ID41
v 0.002584 0.199445 0.332856
v -0.000000 0.200000 0.342500
v -0.058467 0.200000 0.326834
v -0.055883 0.199445 0.317189
v 0.002584 -0.200555 0.355856
v 0.000000 -0.200000 0.365500
v -0.000000 0.200000 0.342500
v 0.002584 0.199445 0.332856
v 0.002584 -0.200555 0.355856
v -0.207416 -0.200555 0.299586
v -0.210000 -0.200000 0.309231
v 0.000000 -0.200000 0.365500
v -0.207416 -0.200555 0.299586
v -0.207416 -0.025555 0.289524
v -0.210000 -0.025000 0.299168
v -0.210000 -0.200000 0.309231
v -0.207416 -0.025555 0.289524
v -0.058467 0.200000 0.326834
v -0.210000 -0.025000 0.299168
v -0.055883 0.199445 0.317189
v 0.000000 -0.200000 0.365500
v -0.058467 0.200000 0.326834
v -0.000000 0.200000 0.342500
v -0.210000 -0.025000 0.299168
v -0.210000 -0.200000 0.309231
v 0.002584 -0.200555 0.355856
v 0.002584 0.199445 0.332856
v -0.055883 0.199445 0.317189
v -0.207416 -0.025555 0.289524
v -0.207416 -0.200555 0.299586
vn 0.0144 0.9985 -0.0536
vn 0.9660 0.0148 0.2580
vn -0.0144 -0.9985 0.0536
vn -0.9660 -0.0148 -0.2580
vn -0.7902 0.5622 -0.2441
vn -0.2584 0.0555 0.9644
vn 0.2584 -0.0555 -0.9644
g 5c3f45929a03a016165dba68.005_ID41_ID18
usemtl ID18
s off
f 49//16 51//16 50//16
f 49//16 52//16 51//16
f 53//17 55//17 54//17
f 53//17 56//17 55//17
f 57//18 59//18 58//18
f 59//18 57//18 60//18
f 61//19 63//19 62//19
f 63//19 61//19 64//19
f 65//20 67//20 66//20
f 65//20 66//20 68//20
f 69//21 71//21 70//21
f 72//21 73//21 69//21
f 69//21 70//21 72//21
f 74//22 76//22 75//22
f 76//22 74//22 77//22
f 74//22 78//22 77//22
o 5c3f45929a03a016165dba68.004_ID35
v 0.210000 -0.200000 0.309231
v 0.207525 -0.197075 0.299994
v -0.002475 -0.197075 0.356263
v -0.000000 -0.200000 0.365500
v -0.002475 -0.197075 0.356263
v -0.002475 -0.797075 0.166263
v -0.000000 -0.800000 0.175500
v -0.000000 -0.200000 0.365500
v -0.002475 -0.797075 0.166263
v 0.027525 -0.797075 0.158225
v 0.030000 -0.800000 0.167462
v -0.000000 -0.800000 0.175500
v 0.030000 -0.800000 0.167462
v 0.027525 -0.797075 0.158225
v 0.207525 -0.372075 0.244577
v 0.210000 -0.375000 0.253814
v 0.207525 -0.197075 0.299994
v 0.210000 -0.200000 0.309231
v 0.210000 -0.375000 0.253814
v 0.207525 -0.372075 0.244577
v 0.030000 -0.800000 0.167462
v -0.000000 -0.200000 0.365500
v -0.000000 -0.800000 0.175500
v 0.210000 -0.375000 0.253814
v 0.210000 -0.200000 0.309231
v 0.027525 -0.797075 0.158225
v -0.002475 -0.797075 0.166263
v -0.002475 -0.197075 0.356263
v 0.207525 -0.372075 0.244577
v 0.207525 -0.197075 0.299994
vn 0.0757 0.9563 0.2825
vn -0.9689 -0.0747 0.2359
vn -0.0757 -0.9563 -0.2825
vn 0.8898 -0.3086 -0.3361
vn 0.9689 0.0747 -0.2359
vn 0.2475 -0.2925 0.9237
vn -0.2475 0.2925 -0.9237
g 5c3f45929a03a016165dba68.004_ID35_ID10
usemtl ID10
s off
f 79//23 80//23 81//23
f 79//23 81//23 82//23
f 83//24 84//24 85//24
f 85//24 86//24 83//24
f 87//25 88//25 89//25
f 89//25 90//25 87//25
f 91//26 92//26 93//26
f 91//26 93//26 94//26
f 95//27 96//27 97//27
f 95//27 97//27 98//27
f 99//28 100//28 101//28
f 100//28 99//28 102//28
f 100//28 102//28 103//28
f 104//29 105//29 106//29
f 104//29 106//29 107//29
f 107//29 106//29 108//29
o 5c3f45929a03a016165dba68.003_ID27
v 0.201446 -0.198436 0.304292
v 0.210000 -0.375000 0.253814
v 0.201446 -0.373436 0.248876
v 0.210000 -0.200000 0.309231
v 0.210000 -0.375000 0.253814
v 0.251446 -0.342186 0.172169
v 0.201446 -0.373436 0.248876
v 0.260000 -0.343750 0.177107
v 0.260000 -0.343750 0.177107
v 0.301446 -0.198436 0.131087
v 0.251446 -0.342186 0.172169
v 0.310000 -0.200000 0.136026
v 0.201446 -0.198436 0.304292
v 0.310000 -0.200000 0.136026
v 0.210000 -0.200000 0.309231
v 0.301446 -0.198436 0.131087
v 0.210000 -0.200000 0.309231
v 0.260000 -0.343750 0.177107
v 0.210000 -0.375000 0.253814
v 0.310000 -0.200000 0.136026
v 0.251446 -0.342186 0.172169
v 0.201446 -0.198436 0.304292
v 0.201446 -0.373436 0.248876
v 0.301446 -0.198436 0.131087
vn -0.5180 -0.2582 0.8155
vn -0.5180 -0.2582 0.8154
vn 0.0355 -0.9334 -0.3571
vn 0.4095 -0.3795 -0.8296
vn 0.4096 -0.3795 -0.8296
vn 0.1354 0.9877 0.0782
vn 0.8554 -0.1564 0.4938
vn -0.8554 0.1564 -0.4938
g 5c3f45929a03a016165dba68.003_ID27_ID34
usemtl ID34
s off
f 109//30 111//30 110//30
f 110//31 112//31 109//31
f 113//32 115//32 114//32
f 113//32 114//32 116//32
f 117//33 119//33 118//33
f 117//34 118//34 120//34
f 121//35 123//35 122//35
f 121//35 122//35 124//35
f 125//36 127//36 126//36
f 126//36 128//36 125//36
f 129//37 131//37 130//37
f 130//37 132//37 129//37
o 5c3f45929a03a016165dba68.002_ID19
v 0.260000 -0.056250 0.214362
v 0.201343 -0.025287 0.294170
v 0.210000 -0.025000 0.299168
v 0.251343 -0.056537 0.209365
v 0.210000 -0.200000 0.309231
v 0.201343 -0.025287 0.294170
v 0.201343 -0.200287 0.304233
v 0.210000 -0.025000 0.299168
v 0.210000 -0.200000 0.309231
v 0.301343 -0.200287 0.131028
v 0.310000 -0.200000 0.136026
v 0.201343 -0.200287 0.304233
v 0.310000 -0.200000 0.136026
v 0.251343 -0.056537 0.209365
v 0.260000 -0.056250 0.214362
v 0.301343 -0.200287 0.131028
v 0.310000 -0.200000 0.136026
v 0.260000 -0.056250 0.214362
v 0.210000 -0.200000 0.309231
v 0.210000 -0.025000 0.299168
v 0.251343 -0.056537 0.209365
v 0.201343 -0.200287 0.304233
v 0.201343 -0.025287 0.294170
v 0.301343 -0.200287 0.131028
vn 0.1276 0.9527 -0.2758
vn -0.5006 0.0497 0.8642
vn 0.0249 -0.9996 0.0144
vn 0.4065 0.5422 -0.7354
vn 0.4066 0.5422 -0.7354
vn 0.8657 0.0287 0.4998
vn -0.8657 -0.0287 -0.4998
g 5c3f45929a03a016165dba68.002_ID19_ID26
usemtl ID26
s off
f 133//38 134//38 135//38
f 134//38 133//38 136//38
f 137//39 138//39 139//39
f 137//39 140//39 138//39
f 141//40 142//40 143//40
f 142//40 141//40 144//40
f 145//41 146//41 147//41
f 146//42 145//42 148//42
f 149//43 150//43 151//43
f 151//43 150//43 152//43
f 153//44 154//44 155//44
f 153//44 156//44 154//44
o 5c3f45929a03a016165dba68.001_ID11
v 0.000000 0.200000 0.342500
v -0.002584 0.199445 0.332856
v 0.055883 0.199445 0.317189
v 0.058467 0.200000 0.326834
v -0.000000 -0.200000 0.365500
v -0.002584 -0.200555 0.355856
v -0.002584 0.199445 0.332856
v 0.000000 0.200000 0.342500
v -0.000000 -0.200000 0.365500
v 0.210000 -0.200000 0.309231
v 0.207416 -0.200555 0.299586
v -0.002584 -0.200555 0.355856
v 0.210000 -0.200000 0.309231
v 0.210000 -0.025000 0.299168
v 0.207416 -0.025555 0.289524
v 0.207416 -0.200555 0.299586
v 0.210000 -0.025000 0.299168
v 0.058467 0.200000 0.326834
v 0.055883 0.199445 0.317189
v 0.207416 -0.025555 0.289524
v 0.210000 -0.025000 0.299168
v -0.000000 -0.200000 0.365500
v 0.058467 0.200000 0.326834
v 0.000000 0.200000 0.342500
v 0.210000 -0.200000 0.309231
v 0.055883 0.199445 0.317189
v -0.002584 -0.200555 0.355856
v 0.207416 -0.025555 0.289524
v -0.002584 0.199445 0.332856
v 0.207416 -0.200555 0.299586
vn -0.0144 0.9985 -0.0536
vn -0.9660 0.0148 0.2580
vn 0.0144 -0.9985 0.0536
vn 0.9660 -0.0148 -0.2580
vn 0.7902 0.5622 -0.2441
vn 0.7902 0.5622 -0.2440
vn 0.2584 0.0555 0.9644
vn -0.2584 -0.0555 -0.9644
g 5c3f45929a03a016165dba68.001_ID11_ID18
usemtl ID18
s off
f 157//45 159//45 158//45
f 157//45 160//45 159//45
f 161//46 163//46 162//46
f 161//46 164//46 163//46
f 165//47 167//47 166//47
f 167//47 165//47 168//47
f 169//48 171//48 170//48
f 171//48 169//48 172//48
f 173//49 175//49 174//49
f 175//50 173//50 176//50
f 177//51 179//51 178//51
f 180//51 178//51 179//51
f 178//51 181//51 177//51
f 182//52 184//52 183//52
f 182//52 183//52 185//52
f 184//52 186//52 183//52
o 5c3f45929a03a016165dba68_ID3
v -0.207525 -0.197075 0.299994
v -0.210000 -0.200000 0.309231
v 0.000000 -0.200000 0.365500
v 0.002475 -0.197075 0.356263
v 0.000000 -0.200000 0.365500
v 0.000000 -0.800000 0.175500
v 0.002475 -0.797075 0.166263
v 0.002475 -0.197075 0.356263
v 0.000000 -0.800000 0.175500
v -0.030000 -0.800000 0.167462
v -0.027525 -0.797075 0.158225
v 0.002475 -0.797075 0.166263
v -0.027525 -0.797075 0.158225
v -0.030000 -0.800000 0.167462
v -0.210000 -0.375000 0.253814
v -0.207525 -0.372075 0.244577
v -0.210000 -0.200000 0.309231
v -0.207525 -0.372075 0.244577
v -0.210000 -0.375000 0.253814
v -0.207525 -0.197075 0.299994
v 0.000000 -0.200000 0.365500
v -0.210000 -0.200000 0.309231
v -0.210000 -0.375000 0.253814
v -0.030000 -0.800000 0.167462
v 0.000000 -0.800000 0.175500
v -0.207525 -0.372075 0.244577
v -0.207525 -0.197075 0.299994
v 0.002475 -0.197075 0.356263
v -0.027525 -0.797075 0.158225
v 0.002475 -0.797075 0.166263
vn -0.0757 0.9563 0.2825
vn 0.9689 -0.0747 0.2359
vn 0.0757 -0.9563 -0.2825
vn -0.8898 -0.3086 -0.3361
vn -0.9689 0.0747 -0.2359
vn -0.2475 -0.2925 0.9237
vn 0.2475 0.2925 -0.9237
g 5c3f45929a03a016165dba68_ID3_ID10
usemtl ID10
s off
f 187//53 188//53 189//53
f 187//53 189//53 190//53
f 191//54 192//54 193//54
f 193//54 194//54 191//54
f 195//55 196//55 197//55
f 197//55 198//55 195//55
f 199//56 200//56 201//56
f 199//56 201//56 202//56
f 203//57 204//57 205//57
f 204//57 203//57 206//57
f 207//58 208//58 209//58
f 207//58 210//58 211//58
f 207//58 209//58 210//58
f 212//59 213//59 214//59
f 214//59 215//59 212//59
f 215//59 214//59 216//59
